NotoSansBassaVah-Regular.ufo
<glyph name="u16AD0" format="2">
  <advance width="627"/>
  <unicode hex="16AD0"/>
  <outline>
    <contour>
      <point x="39" y="0" type="line"/>
      <point x="339" y="0" type="line" smooth="yes"/>
      <point x="481" y="0"/>
      <point x="563" y="69"/>
      <point x="563" y="185" type="curve" smooth="yes"/>
      <point x="563" y="240"/>
      <point x="538" y="310"/>
      <point x="454" y="350" type="curve"/>
      <point x="524" y="386"/>
      <point x="549" y="444"/>
      <point x="549" y="500" type="curve" smooth="yes"/>
      <point x="549" y="615"/>
      <point x="467" y="674"/>
      <point x="324" y="674" type="curve" smooth="yes"/>
      <point x="39" y="674" type="line"/>
      <point x="39" y="605" type="line"/>
      <point x="315" y="605" type="line" smooth="yes"/>
      <point x="400" y="605"/>
      <point x="473" y="579"/>
      <point x="473" y="495" type="curve" smooth="yes"/>
      <point x="473" y="406"/>
      <point x="399" y="381"/>
      <point x="273" y="381" type="curve" smooth="yes"/>
      <point x="236" y="381" type="line"/>
      <point x="236" y="313" type="line"/>
      <point x="288" y="313" type="line" smooth="yes"/>
      <point x="414" y="313"/>
      <point x="488" y="285"/>
      <point x="488" y="189" type="curve" smooth="yes"/>
      <point x="488" y="95"/>
      <point x="415" y="68"/>
      <point x="330" y="68" type="curve" smooth="yes"/>
      <point x="39" y="68" type="line"/>
    </contour>
  </outline>
</glyph>
<glyph name="u16AD1" format="2">
  <advance width="711"/>
  <unicode hex="16AD1"/>
  <outline>
    <contour>
      <point x="78" y="0" type="line"/>
      <point x="151" y="0" type="line"/>
      <point x="151" y="427" type="line" smooth="yes"/>
      <point x="151" y="543"/>
      <point x="233" y="615"/>
      <point x="358" y="615" type="curve" smooth="yes"/>
      <point x="487" y="615"/>
      <point x="560" y="534"/>
      <point x="560" y="426" type="curve" smooth="yes"/>
      <point x="560" y="0" type="line"/>
      <point x="633" y="0" type="line"/>
      <point x="633" y="417" type="line" smooth="yes"/>
      <point x="633" y="565"/>
      <point x="542" y="684"/>
      <point x="356" y="684" type="curve" smooth="yes"/>
      <point x="175" y="684"/>
      <point x="78" y="574"/>
      <point x="78" y="415" type="curve" smooth="yes"/>
    </contour>
  </outline>
</glyph>
<glyph name="u16AD2" format="2">
  <advance width="795"/>
  <unicode hex="16AD2"/>
  <outline>
    <contour>
      <point x="331" y="0" type="curve" smooth="yes"/>
      <point x="597" y="0" type="line" smooth="yes"/>
      <point x="649" y="0"/>
      <point x="683" y="53"/>
      <point x="688" y="103" type="curve" smooth="yes"/>
      <point x="699" y="221" type="line" smooth="yes"/>
      <point x="706" y="293"/>
      <point x="712" y="322"/>
      <point x="741" y="322" type="curve"/>
      <point x="746" y="390" type="line"/>
      <point x="711" y="390"/>
      <point x="638" y="386"/>
      <point x="628" y="262" type="curve" smooth="yes"/>
      <point x="616" y="115" type="line" smooth="yes"/>
      <point x="614" y="86"/>
      <point x="598" y="68"/>
      <point x="579" y="68" type="curve" smooth="yes"/>
      <point x="362" y="68" type="line" smooth="yes"/>
      <point x="322" y="68"/>
      <point x="312" y="85"/>
      <point x="312" y="114" type="curve" smooth="yes"/>
      <point x="312" y="337" type="line"/>
      <point x="442" y="337" type="line"/>
      <point x="442" y="396" type="line"/>
      <point x="312" y="396" type="line"/>
      <point x="312" y="533" type="line" smooth="yes"/>
      <point x="312" y="626"/>
      <point x="276" y="674"/>
      <point x="187" y="674" type="curve" smooth="yes"/>
      <point x="10" y="674" type="line"/>
      <point x="10" y="605" type="line"/>
      <point x="182" y="605" type="line" smooth="yes"/>
      <point x="219" y="605"/>
      <point x="238" y="583"/>
      <point x="238" y="524" type="curve" smooth="yes"/>
      <point x="238" y="396" type="line"/>
      <point x="115" y="396" type="line"/>
      <point x="115" y="337" type="line"/>
      <point x="238" y="337" type="line"/>
      <point x="238" y="104" type="line" smooth="yes"/>
      <point x="238" y="44"/>
      <point x="286" y="0"/>
    </contour>
  </outline>
</glyph>
<glyph name="u16AD3" format="2">
  <advance width="852"/>
  <unicode hex="16AD3"/>
  <outline>
    <contour>
      <point x="377" y="151" type="line"/>
      <point x="546" y="151" type="line" smooth="yes"/>
      <point x="766" y="151"/>
      <point x="813" y="250"/>
      <point x="813" y="338" type="curve" smooth="yes"/>
      <point x="813" y="454"/>
      <point x="730" y="513"/>
      <point x="588" y="513" type="curve" smooth="yes"/>
      <point x="29" y="513" type="line"/>
      <point x="29" y="444" type="line"/>
      <point x="579" y="444" type="line" smooth="yes"/>
      <point x="664" y="444"/>
      <point x="737" y="417"/>
      <point x="737" y="334" type="curve" smooth="yes"/>
      <point x="737" y="245"/>
      <point x="663" y="220"/>
      <point x="537" y="220" type="curve" smooth="yes"/>
      <point x="377" y="220" type="line"/>
    </contour>
  </outline>
</glyph>
<glyph name="u16AD4" format="2">
  <advance width="633"/>
  <unicode hex="16AD4"/>
  <outline>
    <contour>
      <point x="333" y="-10" type="curve" smooth="yes"/>
      <point x="493" y="-10"/>
      <point x="555" y="79"/>
      <point x="555" y="203" type="curve" smooth="yes"/>
      <point x="555" y="424" type="line"/>
      <point x="482" y="424" type="line"/>
      <point x="482" y="413" type="line"/>
      <point x="467" y="357"/>
      <point x="415" y="335"/>
      <point x="317" y="335" type="curve" smooth="yes"/>
      <point x="214" y="335"/>
      <point x="139" y="382"/>
      <point x="139" y="478" type="curve" smooth="yes"/>
      <point x="139" y="576"/>
      <point x="222" y="615"/>
      <point x="313" y="615" type="curve" smooth="yes"/>
      <point x="391" y="615"/>
      <point x="456" y="593"/>
      <point x="507" y="561" type="curve"/>
      <point x="545" y="617" type="line"/>
      <point x="498" y="653"/>
      <point x="426" y="684"/>
      <point x="310" y="684" type="curve" smooth="yes"/>
      <point x="157" y="684"/>
      <point x="63" y="592"/>
      <point x="63" y="479" type="curve" smooth="yes"/>
      <point x="63" y="365"/>
      <point x="150" y="267"/>
      <point x="315" y="267" type="curve" smooth="yes"/>
      <point x="392" y="267"/>
      <point x="445" y="282"/>
      <point x="482" y="306" type="curve"/>
      <point x="482" y="204" type="line" smooth="yes"/>
      <point x="482" y="103"/>
      <point x="433" y="59"/>
      <point x="329" y="59" type="curve" smooth="yes"/>
      <point x="228" y="59"/>
      <point x="156" y="85"/>
      <point x="156" y="188" type="curve" smooth="yes"/>
      <point x="156" y="207" type="line"/>
      <point x="83" y="207" type="line"/>
      <point x="83" y="187" type="line" smooth="yes"/>
      <point x="83" y="52"/>
      <point x="170" y="-10"/>
    </contour>
  </outline>
</glyph>
<glyph name="u16AD5" format="2">
  <advance width="645"/>
  <unicode hex="16AD5"/>
  <outline>
    <contour>
      <point x="322" y="-10" type="curve" smooth="yes"/>
      <point x="473" y="-10"/>
      <point x="576" y="121"/>
      <point x="576" y="291" type="curve" smooth="yes"/>
      <point x="576" y="393"/>
      <point x="538" y="481"/>
      <point x="430" y="544" type="curve"/>
      <point x="391" y="484" type="line"/>
      <point x="475" y="434"/>
      <point x="500" y="363"/>
      <point x="500" y="291" type="curve" smooth="yes"/>
      <point x="500" y="146"/>
      <point x="425" y="59"/>
      <point x="326" y="59" type="curve" smooth="yes"/>
      <point x="227" y="59"/>
      <point x="139" y="145"/>
      <point x="139" y="326" type="curve" smooth="yes"/>
      <point x="139" y="494"/>
      <point x="216" y="605"/>
      <point x="383" y="605" type="curve" smooth="yes"/>
      <point x="581" y="605" type="line"/>
      <point x="581" y="674" type="line"/>
      <point x="388" y="674" type="line" smooth="yes"/>
      <point x="164" y="674"/>
      <point x="63" y="526"/>
      <point x="63" y="327" type="curve" smooth="yes"/>
      <point x="63" y="120"/>
      <point x="180" y="-10"/>
    </contour>
  </outline>
</glyph>
<glyph name="u16AD6" format="2">
  <advance width="571"/>
  <unicode hex="16AD6"/>
  <outline>
    <contour>
      <point x="284" y="-10" type="curve" smooth="yes"/>
      <point x="402" y="-10"/>
      <point x="507" y="50"/>
      <point x="507" y="173" type="curve" smooth="yes"/>
      <point x="507" y="281"/>
      <point x="440" y="333"/>
      <point x="330" y="371" type="curve" smooth="yes"/>
      <point x="281" y="388" type="line" smooth="yes"/>
      <point x="172" y="426"/>
      <point x="139" y="457"/>
      <point x="139" y="518" type="curve" smooth="yes"/>
      <point x="139" y="579"/>
      <point x="195" y="615"/>
      <point x="278" y="615" type="curve" smooth="yes"/>
      <point x="363" y="615"/>
      <point x="429" y="576"/>
      <point x="429" y="500" type="curve" smooth="yes"/>
      <point x="429" y="481" type="line"/>
      <point x="502" y="481" type="line"/>
      <point x="502" y="507" type="line" smooth="yes"/>
      <point x="502" y="636"/>
      <point x="379" y="684"/>
      <point x="277" y="684" type="curve" smooth="yes"/>
      <point x="174" y="684"/>
      <point x="63" y="626"/>
      <point x="63" y="513" type="curve" smooth="yes"/>
      <point x="63" y="412"/>
      <point x="137" y="360"/>
      <point x="243" y="326" type="curve" smooth="yes"/>
      <point x="299" y="308" type="line" smooth="yes"/>
      <point x="392" y="278"/>
      <point x="432" y="236"/>
      <point x="432" y="172" type="curve" smooth="yes"/>
      <point x="432" y="97"/>
      <point x="374" y="59"/>
      <point x="288" y="59" type="curve" smooth="yes"/>
      <point x="203" y="59"/>
      <point x="137" y="98"/>
      <point x="137" y="173" type="curve" smooth="yes"/>
      <point x="137" y="217" type="line"/>
      <point x="63" y="217" type="line"/>
      <point x="63" y="172" type="line" smooth="yes"/>
      <point x="63" y="31"/>
      <point x="193" y="-10"/>
    </contour>
  </outline>
</glyph>
<glyph name="u16AD7" format="2">
  <advance width="732"/>
  <unicode hex="16AD7"/>
  <outline>
    <contour>
      <point x="240" y="-10" type="curve" smooth="yes"/>
      <point x="405" y="-10"/>
      <point x="511" y="134"/>
      <point x="517" y="366" type="curve"/>
      <point x="703" y="366" type="line"/>
      <point x="703" y="435" type="line"/>
      <point x="518" y="435" type="line"/>
      <point x="518" y="523" type="line" smooth="yes"/>
      <point x="518" y="619"/>
      <point x="477" y="674"/>
      <point x="362" y="674" type="curve" smooth="yes"/>
      <point x="51" y="674" type="line"/>
      <point x="51" y="605" type="line"/>
      <point x="361" y="605" type="line" smooth="yes"/>
      <point x="404" y="605"/>
      <point x="444" y="600"/>
      <point x="444" y="514" type="curve" smooth="yes"/>
      <point x="444" y="435" type="line"/>
      <point x="369" y="435" type="line" smooth="yes"/>
      <point x="152" y="435"/>
      <point x="49" y="302"/>
      <point x="49" y="174" type="curve" smooth="yes"/>
      <point x="49" y="63"/>
      <point x="116" y="-10"/>
    </contour>
    <contour>
      <point x="238" y="59" type="curve" smooth="yes"/>
      <point x="158" y="59"/>
      <point x="125" y="105"/>
      <point x="125" y="175" type="curve" smooth="yes"/>
      <point x="125" y="257"/>
      <point x="188" y="366"/>
      <point x="369" y="366" type="curve" smooth="yes"/>
      <point x="444" y="366" type="line"/>
      <point x="439" y="162"/>
      <point x="365" y="59"/>
    </contour>
  </outline>
</glyph>
<glyph name="u16AD8" format="2">
  <advance width="632"/>
  <unicode hex="16AD8"/>
  <outline>
    <contour>
      <point x="331" y="0" type="line"/>
      <point x="404" y="0" type="line"/>
      <point x="454" y="308" type="line"/>
      <point x="612" y="308" type="line"/>
      <point x="612" y="366" type="line"/>
      <point x="463" y="366" type="line"/>
      <point x="476" y="442" type="line" smooth="yes"/>
      <point x="481" y="471"/>
      <point x="488" y="526"/>
      <point x="488" y="569" type="curve" smooth="yes"/>
      <point x="488" y="642"/>
      <point x="458" y="674"/>
      <point x="368" y="674" type="curve" smooth="yes"/>
      <point x="29" y="674" type="line"/>
      <point x="29" y="605" type="line"/>
      <point x="358" y="605" type="line" smooth="yes"/>
      <point x="404" y="605"/>
      <point x="412" y="582"/>
      <point x="412" y="549" type="curve" smooth="yes"/>
      <point x="412" y="518"/>
      <point x="406" y="485"/>
      <point x="402" y="462" type="curve" smooth="yes"/>
      <point x="387" y="366" type="line"/>
      <point x="117" y="366" type="line"/>
      <point x="191" y="473" type="line"/>
      <point x="144" y="507" type="line"/>
      <point x="49" y="371" type="line" smooth="yes"/>
      <point x="42" y="360"/>
      <point x="38" y="351"/>
      <point x="38" y="342" type="curve" smooth="yes"/>
      <point x="38" y="321"/>
      <point x="56" y="308"/>
      <point x="70" y="308" type="curve" smooth="yes"/>
      <point x="378" y="308" type="line"/>
    </contour>
  </outline>
</glyph>
<glyph name="u16AD9" format="2">
  <advance width="765"/>
  <unicode hex="16AD9"/>
  <outline>
    <contour>
      <point x="522" y="186" type="line"/>
      <point x="715" y="439" type="line" smooth="yes"/>
      <point x="723" y="450"/>
      <point x="726" y="465"/>
      <point x="726" y="474" type="curve" smooth="yes"/>
      <point x="726" y="495"/>
      <point x="711" y="513"/>
      <point x="677" y="513" type="curve" smooth="yes"/>
      <point x="29" y="513" type="line"/>
      <point x="29" y="444" type="line"/>
      <point x="637" y="444" type="line"/>
      <point x="464" y="219" type="line"/>
    </contour>
  </outline>
</glyph>
<glyph name="u16ADA" format="2">
  <advance width="671"/>
  <unicode hex="16ADA"/>
  <outline>
    <contour>
      <point x="454" y="-10" type="curve" smooth="yes"/>
      <point x="565" y="-10"/>
      <point x="632" y="64"/>
      <point x="632" y="146" type="curve" smooth="yes"/>
      <point x="632" y="191"/>
      <point x="613" y="301"/>
      <point x="456" y="301" type="curve" smooth="yes"/>
      <point x="360" y="301" type="line"/>
      <point x="360" y="514" type="line" smooth="yes"/>
      <point x="360" y="619"/>
      <point x="337" y="674"/>
      <point x="246" y="674" type="curve" smooth="yes"/>
      <point x="10" y="674" type="line"/>
      <point x="10" y="605" type="line"/>
      <point x="231" y="605" type="line" smooth="yes"/>
      <point x="268" y="605"/>
      <point x="287" y="578"/>
      <point x="287" y="505" type="curve" smooth="yes"/>
      <point x="287" y="301" type="line"/>
      <point x="87" y="301" type="line"/>
      <point x="87" y="233" type="line"/>
      <point x="287" y="233" type="line"/>
      <point x="287" y="167" type="line" smooth="yes"/>
      <point x="287" y="54"/>
      <point x="337" y="-10"/>
    </contour>
    <contour>
      <point x="458" y="59" type="curve" smooth="yes"/>
      <point x="391" y="59"/>
      <point x="360" y="89"/>
      <point x="360" y="167" type="curve" smooth="yes"/>
      <point x="360" y="233" type="line"/>
      <point x="432" y="233" type="line" smooth="yes"/>
      <point x="510" y="233"/>
      <point x="557" y="210"/>
      <point x="557" y="148" type="curve" smooth="yes"/>
      <point x="557" y="88"/>
      <point x="508" y="59"/>
    </contour>
  </outline>
</glyph>
<glyph name="u16ADB" format="2">
  <advance width="786"/>
  <unicode hex="16ADB"/>
  <outline>
    <contour>
      <point x="539" y="39" type="line"/>
      <point x="731" y="293" type="line" smooth="yes"/>
      <point x="739" y="303"/>
      <point x="742" y="318"/>
      <point x="742" y="327" type="curve" smooth="yes"/>
      <point x="742" y="348"/>
      <point x="728" y="366"/>
      <point x="693" y="366" type="curve" smooth="yes"/>
      <point x="132" y="366" type="line"/>
      <point x="305" y="591" type="line"/>
      <point x="248" y="625" type="line"/>
      <point x="55" y="371" type="line" smooth="yes"/>
      <point x="47" y="361"/>
      <point x="44" y="346"/>
      <point x="44" y="337" type="curve" smooth="yes"/>
      <point x="44" y="316"/>
      <point x="58" y="298"/>
      <point x="93" y="298" type="curve" smooth="yes"/>
      <point x="654" y="298" type="line"/>
      <point x="481" y="73" type="line"/>
    </contour>
  </outline>
</glyph>
<glyph name="u16ADC" format="2">
  <advance width="629"/>
  <unicode hex="16ADC"/>
  <outline>
    <contour>
      <point x="235" y="-10" type="curve" smooth="yes"/>
      <point x="415" y="-10"/>
      <point x="566" y="110"/>
      <point x="566" y="332" type="curve" smooth="yes"/>
      <point x="566" y="530"/>
      <point x="459" y="684"/>
      <point x="247" y="684" type="curve" smooth="yes"/>
      <point x="163" y="684"/>
      <point x="103" y="662"/>
      <point x="49" y="629" type="curve"/>
      <point x="83" y="572" type="line"/>
      <point x="127" y="599"/>
      <point x="178" y="615"/>
      <point x="246" y="615" type="curve" smooth="yes"/>
      <point x="399" y="615"/>
      <point x="490" y="518"/>
      <point x="490" y="332" type="curve" smooth="yes"/>
      <point x="490" y="142"/>
      <point x="377" y="59"/>
      <point x="235" y="59" type="curve" smooth="yes"/>
      <point x="176" y="59"/>
      <point x="123" y="74"/>
      <point x="82" y="97" type="curve"/>
      <point x="50" y="35" type="line"/>
      <point x="101" y="6"/>
      <point x="164" y="-10"/>
    </contour>
  </outline>
</glyph>
<glyph name="u16ADD" format="2">
  <advance width="580"/>
  <unicode hex="16ADD"/>
  <outline>
    <contour>
      <point x="271" y="-10" type="curve" smooth="yes"/>
      <point x="395" y="-10"/>
      <point x="501" y="91"/>
      <point x="501" y="226" type="curve" smooth="yes"/>
      <point x="501" y="499" type="line" smooth="yes"/>
      <point x="501" y="614"/>
      <point x="478" y="674"/>
      <point x="387" y="674" type="curve" smooth="yes"/>
      <point x="49" y="674" type="line"/>
      <point x="49" y="605" type="line"/>
      <point x="372" y="605" type="line" smooth="yes"/>
      <point x="409" y="605"/>
      <point x="428" y="578"/>
      <point x="428" y="505" type="curve" smooth="yes"/>
      <point x="428" y="380" type="line"/>
      <point x="386" y="419"/>
      <point x="331" y="443"/>
      <point x="271" y="443" type="curve" smooth="yes"/>
      <point x="146" y="443"/>
      <point x="39" y="341"/>
      <point x="39" y="216" type="curve" smooth="yes"/>
      <point x="39" y="92"/>
      <point x="146" y="-10"/>
    </contour>
    <contour>
      <point x="271" y="59" type="curve" smooth="yes"/>
      <point x="183" y="59"/>
      <point x="115" y="129"/>
      <point x="115" y="216" type="curve" smooth="yes"/>
      <point x="115" y="304"/>
      <point x="183" y="375"/>
      <point x="271" y="375" type="curve" smooth="yes"/>
      <point x="358" y="375"/>
      <point x="426" y="304"/>
      <point x="426" y="216" type="curve" smooth="yes"/>
      <point x="426" y="129"/>
      <point x="358" y="59"/>
    </contour>
  </outline>
</glyph>
<glyph name="u16ADE" format="2">
  <advance width="634"/>
  <unicode hex="16ADE"/>
  <outline>
    <contour>
      <point x="482" y="0" type="line"/>
      <point x="556" y="0" type="line"/>
      <point x="556" y="270" type="line" smooth="yes"/>
      <point x="556" y="395"/>
      <point x="532" y="459"/>
      <point x="441" y="459" type="curve" smooth="yes"/>
      <point x="153" y="459" type="line" smooth="yes"/>
      <point x="113" y="459"/>
      <point x="103" y="476"/>
      <point x="103" y="505" type="curve" smooth="yes"/>
      <point x="103" y="571" type="line" smooth="yes"/>
      <point x="103" y="587"/>
      <point x="110" y="615"/>
      <point x="148" y="615" type="curve" smooth="yes"/>
      <point x="189" y="615" type="line"/>
      <point x="189" y="684" type="line"/>
      <point x="144" y="684" type="line" smooth="yes"/>
      <point x="53" y="684"/>
      <point x="29" y="619"/>
      <point x="29" y="572" type="curve" smooth="yes"/>
      <point x="29" y="495" type="line" smooth="yes"/>
      <point x="29" y="435"/>
      <point x="77" y="391"/>
      <point x="122" y="391" type="curve" smooth="yes"/>
      <point x="426" y="391" type="line" smooth="yes"/>
      <point x="463" y="391"/>
      <point x="482" y="363"/>
      <point x="482" y="290" type="curve" smooth="yes"/>
    </contour>
  </outline>
</glyph>
<glyph name="u16ADF" format="2">
  <advance width="605"/>
  <unicode hex="16ADF"/>
  <outline>
    <contour>
      <point x="98" y="0" type="curve" smooth="yes"/>
      <point x="552" y="0" type="line"/>
      <point x="552" y="68" type="line"/>
      <point x="137" y="68" type="line"/>
      <point x="343" y="337" type="line"/>
      <point x="496" y="337" type="line"/>
      <point x="496" y="396" type="line"/>
      <point x="388" y="396" type="line"/>
      <point x="546" y="601" type="line" smooth="yes"/>
      <point x="554" y="611"/>
      <point x="557" y="626"/>
      <point x="557" y="635" type="curve" smooth="yes"/>
      <point x="557" y="656"/>
      <point x="542" y="674"/>
      <point x="508" y="674" type="curve" smooth="yes"/>
      <point x="54" y="674" type="line"/>
      <point x="54" y="605" type="line"/>
      <point x="468" y="605" type="line"/>
      <point x="307" y="396" type="line"/>
      <point x="120" y="396" type="line"/>
      <point x="120" y="337" type="line"/>
      <point x="262" y="337" type="line"/>
      <point x="60" y="73" type="line" smooth="yes"/>
      <point x="52" y="63"/>
      <point x="49" y="48"/>
      <point x="49" y="39" type="curve" smooth="yes"/>
      <point x="49" y="18"/>
      <point x="63" y="0"/>
    </contour>
  </outline>
</glyph>
<glyph name="u16AE0" format="2">
  <advance width="708"/>
  <unicode hex="16AE0"/>
  <outline>
    <contour>
      <point x="107" y="0" type="line"/>
      <point x="600" y="0" type="line"/>
      <point x="600" y="68" type="line"/>
      <point x="457" y="68" type="line"/>
      <point x="475" y="97"/>
      <point x="491" y="135"/>
      <point x="507" y="184" type="curve" smooth="yes"/>
      <point x="668" y="674" type="line"/>
      <point x="590" y="674" type="line"/>
      <point x="429" y="185" type="line" smooth="yes"/>
      <point x="418" y="150"/>
      <point x="392" y="74"/>
      <point x="354" y="74" type="curve" smooth="yes"/>
      <point x="315" y="74"/>
      <point x="290" y="150"/>
      <point x="278" y="185" type="curve" smooth="yes"/>
      <point x="117" y="674" type="line"/>
      <point x="39" y="674" type="line"/>
      <point x="200" y="184" type="line" smooth="yes"/>
      <point x="216" y="135"/>
      <point x="232" y="97"/>
      <point x="250" y="68" type="curve"/>
      <point x="107" y="68" type="line"/>
    </contour>
  </outline>
</glyph>
<glyph name="u16AE1" format="2">
  <advance width="809"/>
  <unicode hex="16AE1"/>
  <outline>
    <contour>
      <point x="280" y="0" type="curve" smooth="yes"/>
      <point x="315" y="0" type="line"/>
      <point x="315" y="68" type="line"/>
      <point x="280" y="68" type="line" smooth="yes"/>
      <point x="193" y="68"/>
      <point x="125" y="109"/>
      <point x="125" y="197" type="curve" smooth="yes"/>
      <point x="125" y="276"/>
      <point x="183" y="315"/>
      <point x="255" y="345" type="curve" smooth="yes"/>
      <point x="404" y="407" type="line"/>
      <point x="554" y="345" type="line" smooth="yes"/>
      <point x="625" y="316"/>
      <point x="684" y="276"/>
      <point x="684" y="197" type="curve" smooth="yes"/>
      <point x="684" y="109"/>
      <point x="616" y="68"/>
      <point x="528" y="68" type="curve" smooth="yes"/>
      <point x="494" y="68" type="line"/>
      <point x="494" y="0" type="line"/>
      <point x="528" y="0" type="line" smooth="yes"/>
      <point x="653" y="0"/>
      <point x="760" y="72"/>
      <point x="760" y="197" type="curve" smooth="yes"/>
      <point x="760" y="305"/>
      <point x="675" y="365"/>
      <point x="578" y="405" type="curve" smooth="yes"/>
      <point x="477" y="447" type="line"/>
      <point x="526" y="487"/>
      <point x="547" y="525"/>
      <point x="547" y="571" type="curve" smooth="yes"/>
      <point x="547" y="617"/>
      <point x="518" y="684"/>
      <point x="404" y="684" type="curve" smooth="yes"/>
      <point x="291" y="684"/>
      <point x="262" y="617"/>
      <point x="262" y="571" type="curve" smooth="yes"/>
      <point x="262" y="525"/>
      <point x="282" y="487"/>
      <point x="332" y="447" type="curve"/>
      <point x="231" y="405" type="line" smooth="yes"/>
      <point x="134" y="365"/>
      <point x="49" y="305"/>
      <point x="49" y="197" type="curve" smooth="yes"/>
      <point x="49" y="72"/>
      <point x="155" y="0"/>
    </contour>
    <contour>
      <point x="404" y="476" type="curve"/>
      <point x="362" y="499"/>
      <point x="334" y="529"/>
      <point x="334" y="564" type="curve" smooth="yes"/>
      <point x="334" y="604"/>
      <point x="375" y="615"/>
      <point x="407" y="615" type="curve" smooth="yes"/>
      <point x="439" y="615"/>
      <point x="474" y="601"/>
      <point x="474" y="564" type="curve" smooth="yes"/>
      <point x="474" y="529"/>
      <point x="446" y="499"/>
    </contour>
  </outline>
</glyph>
<glyph name="u16AE2" format="2">
  <advance width="856"/>
  <unicode hex="16AE2"/>
  <outline>
    <contour>
      <point x="306" y="132" type="curve" smooth="yes"/>
      <point x="827" y="132" type="line"/>
      <point x="827" y="200" type="line"/>
      <point x="351" y="200" type="line"/>
      <point x="588" y="439" type="line" smooth="yes"/>
      <point x="597" y="449"/>
      <point x="599" y="465"/>
      <point x="599" y="474" type="curve" smooth="yes"/>
      <point x="599" y="495"/>
      <point x="584" y="513"/>
      <point x="550" y="513" type="curve" smooth="yes"/>
      <point x="29" y="513" type="line"/>
      <point x="29" y="444" type="line"/>
      <point x="505" y="444" type="line"/>
      <point x="268" y="205" type="line" smooth="yes"/>
      <point x="259" y="196"/>
      <point x="257" y="180"/>
      <point x="257" y="171" type="curve" smooth="yes"/>
      <point x="257" y="150"/>
      <point x="271" y="132"/>
    </contour>
  </outline>
</glyph>
<glyph name="u16AE3" format="2">
  <advance width="596"/>
  <unicode hex="16AE3"/>
  <outline>
    <contour>
      <point x="59" y="0" type="line"/>
      <point x="537" y="0" type="line"/>
      <point x="537" y="68" type="line"/>
      <point x="342" y="68" type="line"/>
      <point x="342" y="494" type="line" smooth="yes"/>
      <point x="342" y="613"/>
      <point x="318" y="674"/>
      <point x="227" y="674" type="curve" smooth="yes"/>
      <point x="59" y="674" type="line"/>
      <point x="59" y="605" type="line"/>
      <point x="212" y="605" type="line" smooth="yes"/>
      <point x="249" y="605"/>
      <point x="269" y="578"/>
      <point x="269" y="505" type="curve" smooth="yes"/>
      <point x="269" y="68" type="line"/>
      <point x="59" y="68" type="line"/>
    </contour>
  </outline>
</glyph>
<glyph name="u16AE4" format="2">
  <advance width="581"/>
  <unicode hex="16AE4"/>
  <outline>
    <contour>
      <point x="59" y="0" type="line"/>
      <point x="522" y="0" type="line"/>
      <point x="522" y="68" type="line"/>
      <point x="327" y="68" type="line"/>
      <point x="327" y="337" type="line"/>
      <point x="493" y="337" type="line"/>
      <point x="493" y="396" type="line"/>
      <point x="327" y="396" type="line"/>
      <point x="327" y="605" type="line"/>
      <point x="522" y="605" type="line"/>
      <point x="522" y="674" type="line"/>
      <point x="59" y="674" type="line"/>
      <point x="59" y="605" type="line"/>
      <point x="254" y="605" type="line"/>
      <point x="254" y="396" type="line"/>
      <point x="88" y="396" type="line"/>
      <point x="88" y="337" type="line"/>
      <point x="254" y="337" type="line"/>
      <point x="254" y="68" type="line"/>
      <point x="59" y="68" type="line"/>
    </contour>
  </outline>
</glyph>
<glyph name="u16AE5" format="2">
  <advance width="532"/>
  <unicode hex="16AE5"/>
  <outline>
    <contour>
      <point x="312" y="0" type="line"/>
      <point x="385" y="0" type="line"/>
      <point x="454" y="432" type="line" smooth="yes"/>
      <point x="460" y="471"/>
      <point x="468" y="536"/>
      <point x="468" y="570" type="curve" smooth="yes"/>
      <point x="468" y="642"/>
      <point x="435" y="674"/>
      <point x="347" y="674" type="curve" smooth="yes"/>
      <point x="10" y="674" type="line"/>
      <point x="10" y="605" type="line"/>
      <point x="338" y="605" type="line" smooth="yes"/>
      <point x="385" y="605"/>
      <point x="393" y="582"/>
      <point x="393" y="549" type="curve" smooth="yes"/>
      <point x="393" y="518"/>
      <point x="388" y="485"/>
      <point x="381" y="442" type="curve" smooth="yes"/>
    </contour>
  </outline>
</glyph>
<glyph name="u16AE6" format="2">
  <advance width="709"/>
  <unicode hex="16AE6"/>
  <outline>
    <contour>
      <point x="292" y="-10" type="curve" smooth="yes"/>
      <point x="326" y="-10"/>
      <point x="347" y="-7"/>
      <point x="368" y="-1" type="curve" smooth="yes"/>
      <point x="543" y="47" type="line" smooth="yes"/>
      <point x="661" y="79"/>
      <point x="670" y="151"/>
      <point x="670" y="204" type="curve" smooth="yes"/>
      <point x="670" y="251"/>
      <point x="639" y="320"/>
      <point x="547" y="328" type="curve"/>
      <point x="537" y="257" type="line"/>
      <point x="589" y="255"/>
      <point x="597" y="210"/>
      <point x="597" y="198" type="curve" smooth="yes"/>
      <point x="597" y="152"/>
      <point x="581" y="132"/>
      <point x="506" y="109" type="curve" smooth="yes"/>
      <point x="383" y="72" type="line" smooth="yes"/>
      <point x="356" y="64"/>
      <point x="331" y="59"/>
      <point x="309" y="59" type="curve" smooth="yes"/>
      <point x="263" y="59"/>
      <point x="229" y="83"/>
      <point x="229" y="161" type="curve" smooth="yes"/>
      <point x="229" y="431" type="line"/>
      <point x="250" y="431" type="line" smooth="yes"/>
      <point x="384" y="431"/>
      <point x="423" y="497"/>
      <point x="423" y="560" type="curve" smooth="yes"/>
      <point x="423" y="627"/>
      <point x="381" y="684"/>
      <point x="295" y="684" type="curve" smooth="yes"/>
      <point x="190" y="684"/>
      <point x="156" y="607"/>
      <point x="156" y="516" type="curve" smooth="yes"/>
      <point x="156" y="500" type="line"/>
      <point x="10" y="500" type="line"/>
      <point x="10" y="431" type="line"/>
      <point x="156" y="431" type="line"/>
      <point x="156" y="162" type="line" smooth="yes"/>
      <point x="156" y="30"/>
      <point x="221" y="-10"/>
    </contour>
    <contour>
      <point x="229" y="500" type="line"/>
      <point x="229" y="509" type="line" smooth="yes"/>
      <point x="229" y="568"/>
      <point x="241" y="616"/>
      <point x="295" y="616" type="curve" smooth="yes"/>
      <point x="333" y="616"/>
      <point x="350" y="583"/>
      <point x="350" y="561" type="curve" smooth="yes"/>
      <point x="350" y="531"/>
      <point x="337" y="500"/>
      <point x="259" y="500" type="curve" smooth="yes"/>
    </contour>
  </outline>
</glyph>
<glyph name="u16AE7" format="2">
  <advance width="750"/>
  <unicode hex="16AE7"/>
  <outline>
    <contour>
      <point x="215" y="0" type="line"/>
      <point x="288" y="0" type="line"/>
      <point x="288" y="333" type="line" smooth="yes"/>
      <point x="288" y="447"/>
      <point x="333" y="522"/>
      <point x="446" y="522" type="curve" smooth="yes"/>
      <point x="565" y="522"/>
      <point x="599" y="435"/>
      <point x="599" y="324" type="curve" smooth="yes"/>
      <point x="599" y="0" type="line"/>
      <point x="672" y="0" type="line"/>
      <point x="672" y="339" type="line" smooth="yes"/>
      <point x="672" y="487"/>
      <point x="605" y="591"/>
      <point x="444" y="591" type="curve" smooth="yes"/>
      <point x="376" y="591"/>
      <point x="324" y="564"/>
      <point x="287" y="523" type="curve"/>
      <point x="282" y="623"/>
      <point x="254" y="674"/>
      <point x="173" y="674" type="curve" smooth="yes"/>
      <point x="10" y="674" type="line"/>
      <point x="10" y="605" type="line"/>
      <point x="159" y="605" type="line" smooth="yes"/>
      <point x="195" y="605"/>
      <point x="215" y="578"/>
      <point x="215" y="505" type="curve" smooth="yes"/>
    </contour>
  </outline>
</glyph>
<glyph name="u16AE8" format="2">
  <advance width="679"/>
  <unicode hex="16AE8"/>
  <outline>
    <contour>
      <point x="398" y="-10" type="curve" smooth="yes"/>
      <point x="529" y="-10"/>
      <point x="640" y="79"/>
      <point x="640" y="224" type="curve" smooth="yes"/>
      <point x="640" y="358"/>
      <point x="545" y="444"/>
      <point x="428" y="457" type="curve"/>
      <point x="409" y="387" type="line"/>
      <point x="495" y="383"/>
      <point x="564" y="326"/>
      <point x="564" y="224" type="curve" smooth="yes"/>
      <point x="564" y="118"/>
      <point x="490" y="58"/>
      <point x="398" y="58" type="curve" smooth="yes"/>
      <point x="313" y="58"/>
      <point x="229" y="103"/>
      <point x="229" y="264" type="curve" smooth="yes"/>
      <point x="229" y="456" type="line"/>
      <point x="269" y="456" type="line" smooth="yes"/>
      <point x="365" y="456"/>
      <point x="414" y="511"/>
      <point x="414" y="580" type="curve" smooth="yes"/>
      <point x="414" y="629"/>
      <point x="375" y="684"/>
      <point x="293" y="684" type="curve" smooth="yes"/>
      <point x="202" y="684"/>
      <point x="157" y="614"/>
      <point x="156" y="524" type="curve"/>
      <point x="10" y="524" type="line"/>
      <point x="10" y="456" type="line"/>
      <point x="156" y="456" type="line"/>
      <point x="156" y="264" type="line" smooth="yes"/>
      <point x="156" y="84"/>
      <point x="250" y="-10"/>
    </contour>
    <contour>
      <point x="229" y="524" type="line"/>
      <point x="229" y="587"/>
      <point x="256" y="615"/>
      <point x="292" y="615" type="curve" smooth="yes"/>
      <point x="322" y="615"/>
      <point x="340" y="597"/>
      <point x="340" y="577" type="curve" smooth="yes"/>
      <point x="340" y="549"/>
      <point x="324" y="524"/>
      <point x="268" y="524" type="curve" smooth="yes"/>
    </contour>
  </outline>
</glyph>
<glyph name="u16AE9" format="2">
  <advance width="774"/>
  <unicode hex="16AE9"/>
  <outline>
    <contour>
      <point x="390" y="-10" type="curve" smooth="yes"/>
      <point x="550" y="-10"/>
      <point x="711" y="110"/>
      <point x="711" y="332" type="curve" smooth="yes"/>
      <point x="711" y="530"/>
      <point x="579" y="684"/>
      <point x="390" y="684" type="curve" smooth="yes"/>
      <point x="181" y="684"/>
      <point x="63" y="515"/>
      <point x="63" y="332" type="curve" smooth="yes"/>
      <point x="63" y="130"/>
      <point x="197" y="-10"/>
    </contour>
    <contour>
      <point x="390" y="59" type="curve" smooth="yes"/>
      <point x="229" y="59"/>
      <point x="139" y="179"/>
      <point x="139" y="332" type="curve" smooth="yes"/>
      <point x="139" y="491"/>
      <point x="227" y="615"/>
      <point x="387" y="615" type="curve" smooth="yes"/>
      <point x="549" y="615"/>
      <point x="635" y="493"/>
      <point x="635" y="332" type="curve" smooth="yes"/>
      <point x="635" y="167"/>
      <point x="532" y="59"/>
    </contour>
  </outline>
</glyph>
<glyph name="u16AEA" format="2">
  <advance width="1011"/>
  <unicode hex="16AEA"/>
  <outline>
    <contour>
      <point x="355" y="0" type="curve" smooth="yes"/>
      <point x="422" y="0" type="line"/>
      <point x="422" y="68" type="line"/>
      <point x="363" y="68" type="line" smooth="yes"/>
      <point x="246" y="68"/>
      <point x="139" y="147"/>
      <point x="139" y="347" type="curve" smooth="yes"/>
      <point x="139" y="542"/>
      <point x="231" y="615"/>
      <point x="324" y="615" type="curve" smooth="yes"/>
      <point x="404" y="615"/>
      <point x="469" y="574"/>
      <point x="469" y="441" type="curve" smooth="yes"/>
      <point x="469" y="282" type="line"/>
      <point x="542" y="282" type="line"/>
      <point x="542" y="441" type="line" smooth="yes"/>
      <point x="542" y="574"/>
      <point x="607" y="615"/>
      <point x="687" y="615" type="curve" smooth="yes"/>
      <point x="779" y="615"/>
      <point x="872" y="542"/>
      <point x="872" y="347" type="curve" smooth="yes"/>
      <point x="872" y="147"/>
      <point x="765" y="68"/>
      <point x="647" y="68" type="curve" smooth="yes"/>
      <point x="588" y="68" type="line"/>
      <point x="588" y="0" type="line"/>
      <point x="655" y="0" type="line" smooth="yes"/>
      <point x="810" y="0"/>
      <point x="947" y="119"/>
      <point x="947" y="351" type="curve" smooth="yes"/>
      <point x="947" y="564"/>
      <point x="828" y="684"/>
      <point x="687" y="684" type="curve" smooth="yes"/>
      <point x="606" y="684"/>
      <point x="542" y="646"/>
      <point x="505" y="584" type="curve"/>
      <point x="468" y="646"/>
      <point x="404" y="684"/>
      <point x="324" y="684" type="curve" smooth="yes"/>
      <point x="183" y="684"/>
      <point x="63" y="564"/>
      <point x="63" y="351" type="curve" smooth="yes"/>
      <point x="63" y="119"/>
      <point x="201" y="0"/>
    </contour>
  </outline>
</glyph>
<glyph name="u16AEB" format="2">
  <advance width="730"/>
  <unicode hex="16AEB"/>
  <outline>
    <contour>
      <point x="311" y="-10" type="curve" smooth="yes"/>
      <point x="463" y="-10"/>
      <point x="517" y="48"/>
      <point x="572" y="182" type="curve" smooth="yes"/>
      <point x="600" y="250" type="line" smooth="yes"/>
      <point x="611" y="278"/>
      <point x="619" y="296"/>
      <point x="660" y="296" type="curve" smooth="yes"/>
      <point x="691" y="296" type="line"/>
      <point x="691" y="364" type="line"/>
      <point x="646" y="364" type="line" smooth="yes"/>
      <point x="573" y="364"/>
      <point x="553" y="315"/>
      <point x="525" y="246" type="curve" smooth="yes"/>
      <point x="499" y="182" type="line" smooth="yes"/>
      <point x="476" y="126"/>
      <point x="439" y="59"/>
      <point x="312" y="59" type="curve" smooth="yes"/>
      <point x="196" y="59"/>
      <point x="139" y="104"/>
      <point x="139" y="184" type="curve" smooth="yes"/>
      <point x="139" y="276"/>
      <point x="210" y="327"/>
      <point x="339" y="327" type="curve" smooth="yes"/>
      <point x="373" y="327" type="line"/>
      <point x="373" y="396" type="line"/>
      <point x="339" y="396" type="line" smooth="yes"/>
      <point x="210" y="396"/>
      <point x="139" y="422"/>
      <point x="139" y="500" type="curve" smooth="yes"/>
      <point x="139" y="574"/>
      <point x="200" y="615"/>
      <point x="288" y="615" type="curve" smooth="yes"/>
      <point x="373" y="615"/>
      <point x="449" y="571"/>
      <point x="449" y="510" type="curve"/>
      <point x="522" y="510" type="line"/>
      <point x="522" y="646"/>
      <point x="386" y="684"/>
      <point x="287" y="684" type="curve" smooth="yes"/>
      <point x="184" y="684"/>
      <point x="63" y="626"/>
      <point x="63" y="503" type="curve" smooth="yes"/>
      <point x="63" y="442"/>
      <point x="92" y="385"/>
      <point x="184" y="354" type="curve"/>
      <point x="99" y="321"/>
      <point x="63" y="264"/>
      <point x="63" y="187" type="curve" smooth="yes"/>
      <point x="63" y="64"/>
      <point x="161" y="-10"/>
    </contour>
  </outline>
</glyph>
<glyph name="u16AEC" format="2">
  <advance width="740"/>
  <unicode hex="16AEC"/>
  <outline>
    <contour>
      <point x="691" y="-20" type="line"/>
      <point x="691" y="61" type="line"/>
      <point x="171" y="336" type="line"/>
      <point x="691" y="613" type="line"/>
      <point x="691" y="693" type="line"/>
      <point x="78" y="370" type="line" smooth="yes"/>
      <point x="43" y="352"/>
      <point x="29" y="344"/>
      <point x="29" y="337" type="curve" smooth="yes"/>
      <point x="29" y="330"/>
      <point x="43" y="322"/>
      <point x="78" y="304" type="curve" smooth="yes"/>
    </contour>
  </outline>
</glyph>
<glyph name="u16AED" format="2">
  <advance width="755"/>
  <unicode hex="16AED"/>
  <outline>
    <contour>
      <point x="301" y="-10" type="curve" smooth="yes"/>
      <point x="431" y="-10"/>
      <point x="540" y="79"/>
      <point x="540" y="224" type="curve" smooth="yes"/>
      <point x="540" y="381" type="line"/>
      <point x="726" y="381" type="line"/>
      <point x="726" y="449" type="line"/>
      <point x="540" y="449" type="line"/>
      <point x="540" y="497" type="line"/>
      <point x="672" y="497" type="line"/>
      <point x="672" y="556" type="line"/>
      <point x="538" y="556" type="line"/>
      <point x="531" y="634"/>
      <point x="503" y="674"/>
      <point x="425" y="674" type="curve" smooth="yes"/>
      <point x="115" y="674" type="line"/>
      <point x="115" y="605" type="line"/>
      <point x="411" y="605" type="line" smooth="yes"/>
      <point x="439" y="605"/>
      <point x="458" y="595"/>
      <point x="464" y="556" type="curve"/>
      <point x="311" y="556" type="line"/>
      <point x="311" y="497" type="line"/>
      <point x="467" y="497" type="line"/>
      <point x="467" y="449" type="line"/>
      <point x="301" y="449" type="line" smooth="yes"/>
      <point x="170" y="449"/>
      <point x="59" y="369"/>
      <point x="59" y="224" type="curve" smooth="yes"/>
      <point x="59" y="79"/>
      <point x="170" y="-10"/>
    </contour>
    <contour>
      <point x="301" y="59" type="curve" smooth="yes"/>
      <point x="209" y="59"/>
      <point x="134" y="118"/>
      <point x="134" y="224" type="curve" smooth="yes"/>
      <point x="134" y="330"/>
      <point x="209" y="381"/>
      <point x="301" y="381" type="curve" smooth="yes"/>
      <point x="467" y="381" type="line"/>
      <point x="467" y="224" type="line" smooth="yes"/>
      <point x="467" y="118"/>
      <point x="392" y="59"/>
    </contour>
  </outline>
</glyph>
<glyph name="u16AF0" format="2">
  <unicode hex="16AF0"/>
  <outline>
    <contour>
      <point x="401" y="285" type="curve" smooth="yes"/>
      <point x="429" y="285"/>
      <point x="453" y="308"/>
      <point x="453" y="337" type="curve" smooth="yes"/>
      <point x="453" y="365"/>
      <point x="429" y="389"/>
      <point x="401" y="389" type="curve" smooth="yes"/>
      <point x="373" y="389"/>
      <point x="349" y="365"/>
      <point x="349" y="337" type="curve" smooth="yes"/>
      <point x="349" y="308"/>
      <point x="373" y="285"/>
    </contour>
  </outline>
</glyph>
<glyph name="u16AF1" format="2">
  <unicode hex="16AF1"/>
  <outline>
    <contour>
      <point x="377" y="184" type="line"/>
      <point x="465" y="192"/>
      <point x="523" y="255"/>
      <point x="523" y="337" type="curve" smooth="yes"/>
      <point x="523" y="419"/>
      <point x="466" y="482"/>
      <point x="377" y="490" type="curve"/>
      <point x="377" y="436" type="line"/>
      <point x="437" y="428"/>
      <point x="470" y="389"/>
      <point x="470" y="337" type="curve" smooth="yes"/>
      <point x="470" y="284"/>
      <point x="437" y="245"/>
      <point x="377" y="237" type="curve"/>
    </contour>
  </outline>
</glyph>
<glyph name="u16AF2" format="2">
  <unicode hex="16AF2"/>
  <outline>
    <contour>
      <point x="401" y="363" type="curve" smooth="yes"/>
      <point x="429" y="363"/>
      <point x="453" y="386"/>
      <point x="453" y="415" type="curve" smooth="yes"/>
      <point x="453" y="443"/>
      <point x="429" y="467"/>
      <point x="401" y="467" type="curve" smooth="yes"/>
      <point x="373" y="467"/>
      <point x="349" y="443"/>
      <point x="349" y="415" type="curve" smooth="yes"/>
      <point x="349" y="386"/>
      <point x="373" y="363"/>
    </contour>
    <contour>
      <point x="401" y="207" type="curve" smooth="yes"/>
      <point x="429" y="207"/>
      <point x="453" y="230"/>
      <point x="453" y="259" type="curve" smooth="yes"/>
      <point x="453" y="287"/>
      <point x="429" y="311"/>
      <point x="401" y="311" type="curve" smooth="yes"/>
      <point x="373" y="311"/>
      <point x="349" y="287"/>
      <point x="349" y="259" type="curve" smooth="yes"/>
      <point x="349" y="230"/>
      <point x="373" y="207"/>
    </contour>
  </outline>
</glyph>
<glyph name="u16AF3" format="2">
  <unicode hex="16AF3"/>
  <outline>
    <contour>
      <point x="285" y="423" type="line"/>
      <point x="516" y="423" type="line"/>
      <point x="516" y="471" type="line"/>
      <point x="285" y="471" type="line"/>
    </contour>
  </outline>
</glyph>
<glyph name="u16AF4" format="2">
  <unicode hex="16AF4"/>
  <outline>
    <contour>
      <point x="391" y="184" type="line"/>
      <point x="479" y="192"/>
      <point x="537" y="255"/>
      <point x="537" y="337" type="curve" smooth="yes"/>
      <point x="537" y="419"/>
      <point x="479" y="482"/>
      <point x="391" y="490" type="curve"/>
      <point x="391" y="436" type="line"/>
      <point x="450" y="428"/>
      <point x="483" y="389"/>
      <point x="483" y="337" type="curve" smooth="yes"/>
      <point x="483" y="284"/>
      <point x="451" y="245"/>
      <point x="391" y="237" type="curve"/>
    </contour>
    <contour>
      <point x="392" y="285" type="curve" smooth="yes"/>
      <point x="420" y="285"/>
      <point x="444" y="308"/>
      <point x="444" y="337" type="curve" smooth="yes"/>
      <point x="444" y="365"/>
      <point x="420" y="389"/>
      <point x="392" y="389" type="curve" smooth="yes"/>
      <point x="363" y="389"/>
      <point x="340" y="365"/>
      <point x="340" y="337" type="curve" smooth="yes"/>
      <point x="340" y="308"/>
      <point x="363" y="285"/>
    </contour>
  </outline>
</glyph>
<glyph name="u16AF5" format="2">
  <advance width="586"/>
  <unicode hex="16AF5"/>
  <outline>
    <contour>
      <point x="251" y="0" type="line"/>
      <point x="325" y="0" type="line"/>
      <point x="325" y="608" type="line"/>
      <point x="251" y="608" type="line"/>
    </contour>
    <contour>
      <point x="29" y="289" type="line"/>
      <point x="225" y="289" type="line"/>
      <point x="225" y="357" type="line"/>
      <point x="29" y="357" type="line"/>
    </contour>
    <contour>
      <point x="352" y="289" type="line"/>
      <point x="547" y="289" type="line"/>
      <point x="547" y="357" type="line"/>
      <point x="352" y="357" type="line"/>
    </contour>
  </outline>
</glyph>
<glyph name="u16AF1.sm" format="2">
  <outline>
    <contour>
      <point x="264" y="129" type="line"/>
      <point x="326" y="135"/>
      <point x="366" y="178"/>
      <point x="366" y="236" type="curve" smooth="yes"/>
      <point x="366" y="293"/>
      <point x="326" y="337"/>
      <point x="264" y="343" type="curve"/>
      <point x="264" y="305" type="line"/>
      <point x="306" y="300"/>
      <point x="329" y="272"/>
      <point x="329" y="236" type="curve" smooth="yes"/>
      <point x="329" y="199"/>
      <point x="306" y="171"/>
      <point x="264" y="166" type="curve"/>
    </contour>
  </outline>
</glyph>
<glyph name="u16AF2.sm" format="2">
  <outline>
    <contour>
      <point x="281" y="254" type="curve" smooth="yes"/>
      <point x="300" y="254"/>
      <point x="317" y="271"/>
      <point x="317" y="290" type="curve" smooth="yes"/>
      <point x="317" y="311"/>
      <point x="300" y="327"/>
      <point x="281" y="327" type="curve" smooth="yes"/>
      <point x="261" y="327"/>
      <point x="245" y="311"/>
      <point x="245" y="290" type="curve" smooth="yes"/>
      <point x="245" y="271"/>
      <point x="261" y="254"/>
    </contour>
    <contour>
      <point x="281" y="145" type="curve" smooth="yes"/>
      <point x="300" y="145"/>
      <point x="317" y="161"/>
      <point x="317" y="181" type="curve" smooth="yes"/>
      <point x="317" y="201"/>
      <point x="300" y="217"/>
      <point x="281" y="217" type="curve" smooth="yes"/>
      <point x="261" y="217"/>
      <point x="245" y="201"/>
      <point x="245" y="181" type="curve" smooth="yes"/>
      <point x="245" y="161"/>
      <point x="261" y="145"/>
    </contour>
  </outline>
</glyph>
<glyph name="u16AF4.sm" format="2">
  <outline>
    <contour>
      <point x="273" y="129" type="line"/>
      <point x="335" y="135"/>
      <point x="375" y="178"/>
      <point x="375" y="236" type="curve" smooth="yes"/>
      <point x="375" y="293"/>
      <point x="335" y="337"/>
      <point x="273" y="343" type="curve"/>
      <point x="273" y="305" type="line"/>
      <point x="315" y="300"/>
      <point x="338" y="272"/>
      <point x="338" y="236" type="curve" smooth="yes"/>
      <point x="338" y="199"/>
      <point x="315" y="171"/>
      <point x="273" y="166" type="curve"/>
    </contour>
    <contour>
      <point x="274" y="199" type="curve" smooth="yes"/>
      <point x="294" y="199"/>
      <point x="311" y="216"/>
      <point x="311" y="236" type="curve" smooth="yes"/>
      <point x="311" y="256"/>
      <point x="294" y="272"/>
      <point x="274" y="272" type="curve" smooth="yes"/>
      <point x="254" y="272"/>
      <point x="238" y="256"/>
      <point x="238" y="236" type="curve" smooth="yes"/>
      <point x="238" y="216"/>
      <point x="254" y="199"/>
    </contour>
  </outline>
</glyph>
